<svg width="708" height="529" viewBox="0 0 708 529" fill="none" xmlns="http://www.w3.org/2000/svg">
<rect width="708" height="529" fill="#1E1E1E"/>
<g clip-path="url(#clip0_0_1)">
<rect width="708" height="529" fill="white"/>
<path d="M107.515 297.06C106.395 297.06 105.545 296.7 104.965 295.98C104.405 295.24 104.025 293.87 103.825 291.87C103.705 290.83 103.585 289.48 103.465 287.82C102.065 288.24 100.655 288.68 99.2354 289.14L98.2154 291.96C98.0154 292.5 97.8754 292.89 97.7954 293.13C97.7154 293.35 97.5654 293.69 97.3454 294.15C97.1454 294.61 96.9654 294.95 96.8054 295.17C96.6654 295.37 96.4554 295.63 96.1754 295.95C95.9154 296.27 95.6454 296.5 95.3654 296.64C94.6454 297 93.8754 297.18 93.0554 297.18C92.2354 297.18 91.5654 296.89 91.0454 296.31C90.5454 295.71 90.2954 294.98 90.2954 294.12C90.2954 293.88 90.3154 293.63 90.3554 293.37C90.6154 291.45 92.5854 289.7 96.2654 288.12C97.3054 285.46 99.0354 280.98 101.455 274.68C102.095 274.32 102.905 274.14 103.885 274.14C104.105 274.14 104.315 274.14 104.515 274.14C104.715 274.14 104.955 274.14 105.235 274.14C105.535 274.14 105.905 274.2 106.345 274.32C106.365 275.26 106.825 281.09 107.725 291.81C107.805 292.71 107.915 293.3 108.055 293.58C108.195 293.84 108.435 293.97 108.775 293.97C109.335 293.97 110.075 293.59 110.995 292.83C111.935 292.07 112.775 291.12 113.515 289.98L114.355 292.02L113.635 292.98C111.535 295.7 109.495 297.06 107.515 297.06ZM102.745 279.36L100.135 286.65C101.535 286.17 102.575 285.82 103.255 285.6L102.745 279.36ZM95.2154 290.73C93.3554 291.67 92.4254 292.59 92.4254 293.49C92.4254 294.13 92.6654 294.45 93.1454 294.45C93.5054 294.45 93.7954 294.19 94.0154 293.67C94.2754 293.11 94.6754 292.13 95.2154 290.73ZM116.541 280.92C116.541 278.78 117.471 277.1 119.331 275.88C121.191 274.66 123.331 274.05 125.751 274.05C128.851 274.05 131.571 274.94 133.911 276.72C135.071 277.62 135.971 278.82 136.611 280.32C137.251 281.8 137.571 283.44 137.571 285.24C137.571 288.78 136.561 291.66 134.541 293.88C132.441 296.14 129.811 297.27 126.651 297.27C125.951 297.27 125.211 297.18 124.431 297C123.651 296.82 123.031 296.58 122.571 296.28C121.831 296.84 120.881 297.12 119.721 297.12C118.581 297.12 117.691 296.8 117.051 296.16C116.411 295.52 116.091 294.7 116.091 293.7C116.091 291.34 117.881 289.33 121.461 287.67C121.561 286.83 121.701 285.7 121.881 284.28C122.081 282.84 122.231 281.68 122.331 280.8C122.451 279.92 122.531 279.34 122.571 279.06C123.391 278.54 124.341 278.28 125.421 278.28C125.921 278.28 126.401 278.33 126.861 278.43L124.971 291.24C124.791 292.38 124.541 293.33 124.221 294.09C124.841 294.25 125.341 294.33 125.721 294.33C128.021 294.33 129.801 293.46 131.061 291.72C132.361 289.9 133.011 287.7 133.011 285.12C133.011 281.82 131.821 279.45 129.441 278.01C128.121 277.21 126.671 276.81 125.091 276.81C123.071 276.81 121.471 277.36 120.291 278.46C119.611 279.08 119.271 279.83 119.271 280.71C119.271 281.17 119.411 281.61 119.691 282.03C119.971 282.43 120.461 282.66 121.161 282.72L120.861 284.67C119.401 284.59 118.311 284.19 117.591 283.47C116.891 282.73 116.541 281.88 116.541 280.92ZM118.311 293.31C118.311 294.03 118.651 294.39 119.331 294.39C119.611 294.39 119.901 294.21 120.201 293.85C120.521 293.47 120.741 292.88 120.861 292.08L121.131 290.22C119.251 291.28 118.311 292.31 118.311 293.31ZM149.036 286.53C147.876 287.35 147.296 288.57 147.296 290.19C147.296 291.21 147.656 292.17 148.376 293.07C149.116 293.97 150.356 294.42 152.096 294.42C153.836 294.42 155.486 293.83 157.046 292.65C158.606 291.47 159.786 290.18 160.586 288.78L161.606 290.61C159.026 294.99 155.436 297.18 150.836 297.18C148.556 297.18 146.626 296.57 145.046 295.35C143.466 294.11 142.676 292.66 142.676 291C142.676 288.1 143.966 286 146.546 284.7C145.686 283.64 145.256 282.4 145.256 280.98C145.256 279.12 146.056 277.52 147.656 276.18C149.276 274.84 151.146 274.17 153.266 274.17C155.386 274.17 157.016 274.71 158.156 275.79C159.316 276.87 159.896 278.29 159.896 280.05H157.046C157.066 278.97 156.776 278.16 156.176 277.62C155.596 277.06 154.776 276.78 153.716 276.78C152.676 276.78 151.736 277.16 150.896 277.92C149.956 278.74 149.486 279.7 149.486 280.8C149.486 281.9 149.786 282.85 150.386 283.65C152.386 283.41 153.906 283.54 154.946 284.04C155.586 284.34 155.906 284.82 155.906 285.48C155.906 286.12 155.536 286.57 154.796 286.83C154.076 287.09 153.206 287.22 152.186 287.22C151.166 287.22 150.116 286.99 149.036 286.53ZM162.309 280.92C162.309 278.78 163.239 277.1 165.099 275.88C166.959 274.66 169.099 274.05 171.519 274.05C174.619 274.05 177.339 274.94 179.679 276.72C180.839 277.62 181.739 278.82 182.379 280.32C183.019 281.8 183.339 283.44 183.339 285.24C183.339 288.78 182.329 291.66 180.309 293.88C178.209 296.14 175.579 297.27 172.419 297.27C171.719 297.27 170.979 297.18 170.199 297C169.419 296.82 168.799 296.58 168.339 296.28C167.599 296.84 166.649 297.12 165.489 297.12C164.349 297.12 163.459 296.8 162.819 296.16C162.179 295.52 161.859 294.7 161.859 293.7C161.859 291.34 163.649 289.33 167.229 287.67C167.329 286.83 167.469 285.7 167.649 284.28C167.849 282.84 167.999 281.68 168.099 280.8C168.219 279.92 168.299 279.34 168.339 279.06C169.159 278.54 170.109 278.28 171.189 278.28C171.689 278.28 172.169 278.33 172.629 278.43L170.739 291.24C170.559 292.38 170.309 293.33 169.989 294.09C170.609 294.25 171.109 294.33 171.489 294.33C173.789 294.33 175.569 293.46 176.829 291.72C178.129 289.9 178.779 287.7 178.779 285.12C178.779 281.82 177.589 279.45 175.209 278.01C173.889 277.21 172.439 276.81 170.859 276.81C168.839 276.81 167.239 277.36 166.059 278.46C165.379 279.08 165.039 279.83 165.039 280.71C165.039 281.17 165.179 281.61 165.459 282.03C165.739 282.43 166.229 282.66 166.929 282.72L166.629 284.67C165.169 284.59 164.079 284.19 163.359 283.47C162.659 282.73 162.309 281.88 162.309 280.92ZM164.079 293.31C164.079 294.03 164.419 294.39 165.099 294.39C165.379 294.39 165.669 294.21 165.969 293.85C166.289 293.47 166.509 292.88 166.629 292.08L166.899 290.22C165.019 291.28 164.079 292.31 164.079 293.31ZM206.023 297.06C204.903 297.06 204.053 296.7 203.473 295.98C202.913 295.24 202.533 293.87 202.333 291.87C202.213 290.83 202.093 289.48 201.973 287.82C200.573 288.24 199.163 288.68 197.743 289.14L196.723 291.96C196.523 292.5 196.383 292.89 196.303 293.13C196.223 293.35 196.073 293.69 195.853 294.15C195.653 294.61 195.473 294.95 195.313 295.17C195.173 295.37 194.963 295.63 194.683 295.95C194.423 296.27 194.153 296.5 193.873 296.64C193.153 297 192.383 297.18 191.563 297.18C190.743 297.18 190.073 296.89 189.553 296.31C189.053 295.71 188.803 294.98 188.803 294.12C188.803 293.88 188.823 293.63 188.863 293.37C189.123 291.45 191.093 289.7 194.773 288.12C195.813 285.46 197.543 280.98 199.963 274.68C200.603 274.32 201.413 274.14 202.393 274.14C202.613 274.14 202.823 274.14 203.023 274.14C203.223 274.14 203.463 274.14 203.743 274.14C204.043 274.14 204.413 274.2 204.853 274.32C204.873 275.26 205.333 281.09 206.233 291.81C206.313 292.71 206.423 293.3 206.563 293.58C206.703 293.84 206.943 293.97 207.283 293.97C207.843 293.97 208.583 293.59 209.503 292.83C210.443 292.07 211.283 291.12 212.023 289.98L212.863 292.02L212.143 292.98C210.043 295.7 208.003 297.06 206.023 297.06ZM201.253 279.36L198.643 286.65C200.043 286.17 201.083 285.82 201.763 285.6L201.253 279.36ZM193.723 290.73C191.863 291.67 190.933 292.59 190.933 293.49C190.933 294.13 191.173 294.45 191.653 294.45C192.013 294.45 192.303 294.19 192.523 293.67C192.783 293.11 193.183 292.13 193.723 290.73ZM233.499 274.38C233.919 274.22 234.509 274.14 235.269 274.14C236.029 274.14 236.709 274.19 237.309 274.29C236.689 278.89 236.199 283.06 235.839 286.8C235.499 290.52 235.309 292.48 235.269 292.68C235.249 292.88 235.239 293.06 235.239 293.22C235.259 293.74 235.509 294 235.989 294C237.189 294 238.859 292.62 240.999 289.86C241.379 290.92 241.599 291.63 241.659 291.99C240.699 293.51 239.539 294.76 238.179 295.74C236.839 296.7 235.569 297.18 234.369 297.18C233.169 297.18 232.339 296.87 231.879 296.25C231.419 295.63 231.189 294.94 231.189 294.18C231.189 294 231.209 293.65 231.249 293.13C231.309 292.61 231.709 289.37 232.449 283.41L227.529 294.78H224.979L223.509 283.59L221.409 292.89C221.069 294.37 220.509 295.46 219.729 296.16C218.969 296.86 218.129 297.21 217.209 297.21C216.289 297.21 215.539 296.94 214.959 296.4C214.339 295.82 214.029 295 214.029 293.94C214.029 291.82 215.669 290.01 218.949 288.51C220.729 279.97 221.689 275.24 221.829 274.32C222.309 274.2 222.949 274.14 223.749 274.14C224.569 274.14 225.129 274.16 225.429 274.2H225.639L227.499 288.15L233.499 274.53V274.38ZM216.159 293.43C216.159 294.07 216.409 294.39 216.909 294.39C217.249 294.39 217.529 294.12 217.749 293.58C218.029 292.92 218.259 292.05 218.439 290.97C216.919 291.83 216.159 292.65 216.159 293.43ZM270.236 284.94C269.776 285.44 269.016 285.89 267.956 286.29C266.896 286.67 266.046 286.86 265.406 286.86C264.786 286.86 264.326 286.84 264.026 286.8C263.526 289.76 262.246 292.23 260.186 294.21C258.146 296.19 255.766 297.18 253.046 297.18C250.346 297.18 248.306 296.34 246.926 294.66C245.566 292.98 244.886 290.79 244.886 288.09C244.886 286.33 245.156 284.62 245.696 282.96C246.236 281.28 246.976 279.79 247.916 278.49C248.876 277.19 250.076 276.15 251.516 275.37C252.956 274.57 254.456 274.17 256.016 274.17C257.596 274.17 258.886 274.53 259.886 275.25C260.906 275.95 261.416 276.93 261.416 278.19C261.416 279.15 261.076 280.01 260.396 280.77C259.736 281.51 258.816 281.88 257.636 281.88C257.016 281.88 256.466 281.73 255.986 281.43C255.506 281.11 255.266 280.61 255.266 279.93C255.266 279.61 255.346 279.33 255.506 279.09C255.666 278.85 255.826 278.7 255.986 278.64L256.256 278.52C256.256 279.32 256.576 279.72 257.216 279.72C257.516 279.72 257.776 279.62 257.996 279.42C258.216 279.2 258.336 278.96 258.356 278.7C258.376 278.44 258.366 278.24 258.326 278.1C258.286 277.94 258.206 277.76 258.086 277.56C257.806 277.06 257.216 276.81 256.316 276.81C255.136 276.81 254.016 277.37 252.956 278.49C251.896 279.61 251.046 281.05 250.406 282.81C249.786 284.57 249.476 286.37 249.476 288.21C249.476 289.75 249.726 291.12 250.226 292.32C250.506 292.96 250.916 293.47 251.456 293.85C251.996 294.21 252.646 294.39 253.406 294.39C254.666 294.39 255.786 293.86 256.766 292.8C257.766 291.74 258.496 290.46 258.956 288.96C259.436 287.46 259.676 285.94 259.676 284.4V284.04C259.616 283.82 259.586 283.61 259.586 283.41C259.586 282.45 259.926 281.72 260.606 281.22C261.046 280.9 261.596 280.74 262.256 280.74C262.436 280.74 262.726 280.77 263.126 280.83C263.526 280.89 263.806 280.98 263.966 281.1C263.546 281.12 263.216 281.26 262.976 281.52C262.756 281.78 262.646 282.13 262.646 282.57C262.646 283.01 262.846 283.42 263.246 283.8C263.806 284.34 264.676 284.61 265.856 284.61C267.056 284.61 268.296 284.12 269.576 283.14L270.236 284.94ZM281.008 294.39C281.228 294.47 281.468 294.51 281.728 294.51C282.008 294.51 282.268 294.48 282.508 294.42C282.768 294.36 282.998 294.22 283.198 294C283.418 293.76 283.588 293.57 283.708 293.43C283.828 293.29 283.978 292.98 284.158 292.5C284.378 291.94 284.648 291.15 284.968 290.13C285.808 290.91 286.308 291.5 286.468 291.9C285.508 295.42 283.818 297.18 281.398 297.18C280.258 297.18 278.808 296.44 277.048 294.96C276.128 296.44 274.698 297.18 272.758 297.18C271.898 297.18 271.118 296.89 270.418 296.31C269.738 295.73 269.398 294.9 269.398 293.82C269.398 292.74 269.758 291.86 270.478 291.18C271.198 290.48 272.128 290.13 273.268 290.13C273.488 290.13 273.798 290.15 274.198 290.19L274.618 286.38C273.738 286.66 272.378 287.02 270.538 287.46V285.21C272.038 284.87 273.478 284.49 274.858 284.07L275.458 279.18C275.878 275.84 277.578 274.17 280.558 274.17C281.738 274.17 282.678 274.5 283.378 275.16C284.098 275.8 284.458 276.71 284.458 277.89C284.458 280.73 282.628 283.02 278.968 284.76L278.068 291.84L278.038 292.14C279.518 293.46 280.508 294.21 281.008 294.39ZM282.208 278.13C282.208 277.29 281.858 276.87 281.158 276.87C280.318 276.87 279.788 277.86 279.568 279.84L279.268 282.21C281.228 281.05 282.208 279.69 282.208 278.13ZM271.678 293.61C271.678 294.21 272.018 294.51 272.698 294.51C273.358 294.51 273.768 293.92 273.928 292.74C273.548 292.58 273.188 292.5 272.848 292.5C272.528 292.5 272.248 292.61 272.008 292.83C271.788 293.05 271.678 293.31 271.678 293.61ZM306.054 297.06C304.934 297.06 304.084 296.7 303.504 295.98C302.944 295.24 302.564 293.87 302.364 291.87C302.244 290.83 302.124 289.48 302.004 287.82C300.604 288.24 299.194 288.68 297.774 289.14L296.754 291.96C296.554 292.5 296.414 292.89 296.334 293.13C296.254 293.35 296.104 293.69 295.884 294.15C295.684 294.61 295.504 294.95 295.344 295.17C295.204 295.37 294.994 295.63 294.714 295.95C294.454 296.27 294.184 296.5 293.904 296.64C293.184 297 292.414 297.18 291.594 297.18C290.774 297.18 290.104 296.89 289.584 296.31C289.084 295.71 288.834 294.98 288.834 294.12C288.834 293.88 288.854 293.63 288.894 293.37C289.154 291.45 291.124 289.7 294.804 288.12C295.844 285.46 297.574 280.98 299.994 274.68C300.634 274.32 301.444 274.14 302.424 274.14C302.644 274.14 302.854 274.14 303.054 274.14C303.254 274.14 303.494 274.14 303.774 274.14C304.074 274.14 304.444 274.2 304.884 274.32C304.904 275.26 305.364 281.09 306.264 291.81C306.344 292.71 306.454 293.3 306.594 293.58C306.734 293.84 306.974 293.97 307.314 293.97C307.874 293.97 308.614 293.59 309.534 292.83C310.474 292.07 311.314 291.12 312.054 289.98L312.894 292.02L312.174 292.98C310.074 295.7 308.034 297.06 306.054 297.06ZM301.284 279.36L298.674 286.65C300.074 286.17 301.114 285.82 301.794 285.6L301.284 279.36ZM293.754 290.73C291.894 291.67 290.964 292.59 290.964 293.49C290.964 294.13 291.204 294.45 291.684 294.45C292.044 294.45 292.334 294.19 292.554 293.67C292.814 293.11 293.214 292.13 293.754 290.73ZM354.154 297.06C353.034 297.06 352.184 296.7 351.604 295.98C351.044 295.24 350.664 293.87 350.464 291.87C350.344 290.83 350.224 289.48 350.104 287.82C348.704 288.24 347.294 288.68 345.874 289.14L344.854 291.96C344.654 292.5 344.514 292.89 344.434 293.13C344.354 293.35 344.204 293.69 343.984 294.15C343.784 294.61 343.604 294.95 343.444 295.17C343.304 295.37 343.094 295.63 342.814 295.95C342.554 296.27 342.284 296.5 342.004 296.64C341.284 297 340.514 297.18 339.694 297.18C338.874 297.18 338.204 296.89 337.684 296.31C337.184 295.71 336.934 294.98 336.934 294.12C336.934 293.88 336.954 293.63 336.994 293.37C337.254 291.45 339.224 289.7 342.904 288.12C343.944 285.46 345.674 280.98 348.094 274.68C348.734 274.32 349.544 274.14 350.524 274.14C350.744 274.14 350.954 274.14 351.154 274.14C351.354 274.14 351.594 274.14 351.874 274.14C352.174 274.14 352.544 274.2 352.984 274.32C353.004 275.26 353.464 281.09 354.364 291.81C354.444 292.71 354.554 293.3 354.694 293.58C354.834 293.84 355.074 293.97 355.414 293.97C355.974 293.97 356.714 293.59 357.634 292.83C358.574 292.07 359.414 291.12 360.154 289.98L360.994 292.02L360.274 292.98C358.174 295.7 356.134 297.06 354.154 297.06ZM349.384 279.36L346.774 286.65C348.174 286.17 349.214 285.82 349.894 285.6L349.384 279.36ZM341.854 290.73C339.994 291.67 339.064 292.59 339.064 293.49C339.064 294.13 339.304 294.45 339.784 294.45C340.144 294.45 340.434 294.19 340.654 293.67C340.914 293.11 341.314 292.13 341.854 290.73ZM377.19 277.62C376.87 277.48 376.56 277.41 376.26 277.41C375.96 277.41 375.66 277.6 375.36 277.98C375.06 278.36 374.86 278.91 374.76 279.63L373.26 290.13C375.78 289.03 377.39 288.21 378.09 287.67L379.23 289.65C378.63 290.11 377.91 290.52 377.07 290.88C376.23 291.24 375.42 291.58 374.64 291.9C373.86 292.2 373.28 292.43 372.9 292.59L371.91 299.61C371.65 301.53 370.96 302.94 369.84 303.84C368.74 304.76 367.52 305.22 366.18 305.22C364.86 305.22 363.81 304.73 363.03 303.75C362.25 302.79 361.86 301.71 361.86 300.51C361.86 297.37 364.16 294.58 368.76 292.14L369.06 289.71C369.44 286.27 369.83 283.28 370.23 280.74C369.09 281.2 367.89 281.43 366.63 281.43C365.39 281.43 364.38 281.09 363.6 280.41C362.84 279.73 362.46 278.84 362.46 277.74C362.46 276.64 362.85 275.78 363.63 275.16C364.43 274.52 365.43 274.2 366.63 274.2C367.37 274.2 368.43 274.43 369.81 274.89C371.21 275.35 372.29 275.58 373.05 275.58C374.41 275.58 375.55 275.23 376.47 274.53C376.97 275.23 377.22 276.06 377.22 277.02C377.22 277.22 377.21 277.42 377.19 277.62ZM365.43 278.55C365.43 278.85 365.59 279.11 365.91 279.33C366.25 279.55 366.75 279.66 367.41 279.66C368.09 279.66 368.97 279.36 370.05 278.76C369.27 278.58 368.47 278.38 367.65 278.16C366.83 277.92 366.34 277.8 366.18 277.8C365.68 277.8 365.43 278.05 365.43 278.55ZM368.43 294.75C365.57 296.47 364.14 298.29 364.14 300.21C364.14 300.75 364.28 301.21 364.56 301.59C364.88 302.03 365.28 302.25 365.76 302.25C366.26 302.25 366.69 302.1 367.05 301.8C367.41 301.5 367.63 301.02 367.71 300.36L368.43 294.75ZM397.109 297.06C395.989 297.06 395.139 296.7 394.559 295.98C393.999 295.24 393.619 293.87 393.419 291.87C393.299 290.83 393.179 289.48 393.059 287.82C391.659 288.24 390.249 288.68 388.829 289.14L387.809 291.96C387.609 292.5 387.469 292.89 387.389 293.13C387.309 293.35 387.159 293.69 386.939 294.15C386.739 294.61 386.559 294.95 386.399 295.17C386.259 295.37 386.049 295.63 385.769 295.95C385.509 296.27 385.239 296.5 384.959 296.64C384.239 297 383.469 297.18 382.649 297.18C381.829 297.18 381.159 296.89 380.639 296.31C380.139 295.71 379.889 294.98 379.889 294.12C379.889 293.88 379.909 293.63 379.949 293.37C380.209 291.45 382.179 289.7 385.859 288.12C386.899 285.46 388.629 280.98 391.049 274.68C391.689 274.32 392.499 274.14 393.479 274.14C393.699 274.14 393.909 274.14 394.109 274.14C394.309 274.14 394.549 274.14 394.829 274.14C395.129 274.14 395.499 274.2 395.939 274.32C395.959 275.26 396.419 281.09 397.319 291.81C397.399 292.71 397.509 293.3 397.649 293.58C397.789 293.84 398.029 293.97 398.369 293.97C398.929 293.97 399.669 293.59 400.589 292.83C401.529 292.07 402.369 291.12 403.109 289.98L403.949 292.02L403.229 292.98C401.129 295.7 399.089 297.06 397.109 297.06ZM392.339 279.36L389.729 286.65C391.129 286.17 392.169 285.82 392.849 285.6L392.339 279.36ZM384.809 290.73C382.949 291.67 382.019 292.59 382.019 293.49C382.019 294.13 382.259 294.45 382.739 294.45C383.099 294.45 383.389 294.19 383.609 293.67C383.869 293.11 384.269 292.13 384.809 290.73ZM417.325 281.88C417.925 280.98 418.225 280.14 418.225 279.36C418.225 278.58 418.005 277.96 417.565 277.5C417.125 277.04 416.545 276.81 415.825 276.81C415.105 276.81 414.525 276.99 414.085 277.35C413.645 277.69 413.425 278.24 413.425 279C413.425 279.74 413.945 281.08 414.985 283.02C416.025 284.96 416.685 286.21 416.965 286.77C417.725 288.29 418.105 289.76 418.105 291.18C418.105 292.96 417.455 294.41 416.155 295.53C414.875 296.63 413.355 297.18 411.595 297.18C409.855 297.18 408.485 296.64 407.485 295.56C406.485 294.46 405.985 293.18 405.985 291.72C405.985 289.02 407.655 286.79 410.995 285.03C409.635 282.35 408.955 280.48 408.955 279.42C408.955 277.94 409.545 276.69 410.725 275.67C411.925 274.63 413.385 274.11 415.105 274.11C416.845 274.11 418.175 274.55 419.095 275.43C420.015 276.31 420.475 277.43 420.475 278.79C420.475 279.69 420.175 280.72 419.575 281.88H417.325ZM409.465 293.58C410.005 294.16 410.655 294.45 411.415 294.45C412.195 294.45 412.795 294.23 413.215 293.79C413.655 293.33 413.875 292.66 413.875 291.78C413.875 290.98 413.565 290 412.945 288.84C412.865 288.68 412.715 288.39 412.495 287.97C412.275 287.53 412.115 287.22 412.015 287.04C409.775 288.2 408.655 289.66 408.655 291.42C408.655 292.32 408.925 293.04 409.465 293.58ZM442.174 297.06C441.054 297.06 440.204 296.7 439.624 295.98C439.064 295.24 438.684 293.87 438.484 291.87C438.364 290.83 438.244 289.48 438.124 287.82C436.724 288.24 435.314 288.68 433.894 289.14L432.874 291.96C432.674 292.5 432.534 292.89 432.454 293.13C432.374 293.35 432.224 293.69 432.004 294.15C431.804 294.61 431.624 294.95 431.464 295.17C431.324 295.37 431.114 295.63 430.834 295.95C430.574 296.27 430.304 296.5 430.024 296.64C429.304 297 428.534 297.18 427.714 297.18C426.894 297.18 426.224 296.89 425.704 296.31C425.204 295.71 424.954 294.98 424.954 294.12C424.954 293.88 424.974 293.63 425.014 293.37C425.274 291.45 427.244 289.7 430.924 288.12C431.964 285.46 433.694 280.98 436.114 274.68C436.754 274.32 437.564 274.14 438.544 274.14C438.764 274.14 438.974 274.14 439.174 274.14C439.374 274.14 439.614 274.14 439.894 274.14C440.194 274.14 440.564 274.2 441.004 274.32C441.024 275.26 441.484 281.09 442.384 291.81C442.464 292.71 442.574 293.3 442.714 293.58C442.854 293.84 443.094 293.97 443.434 293.97C443.994 293.97 444.734 293.59 445.654 292.83C446.594 292.07 447.434 291.12 448.174 289.98L449.014 292.02L448.294 292.98C446.194 295.7 444.154 297.06 442.174 297.06ZM437.404 279.36L434.794 286.65C436.194 286.17 437.234 285.82 437.914 285.6L437.404 279.36ZM429.874 290.73C428.014 291.67 427.084 292.59 427.084 293.49C427.084 294.13 427.324 294.45 427.804 294.45C428.164 294.45 428.454 294.19 428.674 293.67C428.934 293.11 429.334 292.13 429.874 290.73Z" fill="black"/>
<mask id="mask0_0_1" style="mask-type:alpha" maskUnits="userSpaceOnUse" x="109" y="298" width="393" height="71">
<rect x="109" y="298" width="393" height="71" fill="#D9D9D9"/>
</mask>
<g mask="url(#mask0_0_1)">
<path d="M195.75 361H128.42V142.818H198.733C219.898 142.818 238.009 147.186 253.065 155.922C268.122 164.587 279.663 177.051 287.689 193.315C295.714 209.509 299.727 228.898 299.727 251.483C299.727 274.21 295.679 293.777 287.582 310.183C279.486 326.518 267.696 339.089 252.213 347.896C236.73 356.632 217.909 361 195.75 361ZM154.841 337.562H194.045C212.085 337.562 227.036 334.082 238.896 327.122C250.757 320.162 259.599 310.254 265.423 297.399C271.247 284.544 274.159 269.239 274.159 251.483C274.159 233.869 271.283 218.706 265.53 205.993C259.777 193.209 251.183 183.408 239.749 176.589C228.314 169.7 214.074 166.256 197.028 166.256H154.841V337.562ZM342.74 361H315.042L395.155 142.818H422.428L502.542 361H474.843L409.644 177.335H407.939L342.74 361ZM352.968 275.773H464.615V299.21H352.968V275.773Z" fill="black"/>
</g>
<mask id="mask1_0_1" style="mask-type:alpha" maskUnits="userSpaceOnUse" x="119" y="141" width="378" height="135">
<rect x="119" y="141" width="378" height="135" fill="#D9D9D9"/>
</mask>
<g mask="url(#mask1_0_1)">
<path d="M195.75 361H128.42V142.818H198.733C219.898 142.818 238.009 147.186 253.065 155.922C268.122 164.587 279.663 177.051 287.689 193.315C295.714 209.509 299.727 228.898 299.727 251.483C299.727 274.21 295.679 293.777 287.582 310.183C279.486 326.518 267.696 339.089 252.213 347.896C236.73 356.632 217.909 361 195.75 361ZM154.841 337.562H194.045C212.085 337.562 227.036 334.082 238.896 327.122C250.757 320.162 259.599 310.254 265.423 297.399C271.247 284.544 274.159 269.239 274.159 251.483C274.159 233.869 271.283 218.706 265.53 205.993C259.777 193.209 251.183 183.408 239.749 176.589C228.314 169.7 214.074 166.256 197.028 166.256H154.841V337.562ZM342.74 361H315.042L395.155 142.818H422.428L502.542 361H474.843L409.644 177.335H407.939L342.74 361ZM352.968 275.773H464.615V299.21H352.968V275.773Z" fill="black"/>
</g>
</g>
<defs>
<clipPath id="clip0_0_1">
<rect width="708" height="529" fill="white"/>
</clipPath>
</defs>
</svg>
